<?xml version="1.0" encoding="UTF-8"?>
<svg width="87px" height="50px" viewBox="0 0 87 50" version="1.1" xmlns="http://www.w3.org/2000/svg" xmlns:xlink="http://www.w3.org/1999/xlink">
    <!-- Generator: Sketch 52.5 (67469) - http://www.bohemiancoding.com/sketch -->
    <title>troy</title>
    <desc>Created with Sketch.</desc>
    <g id="troy" stroke="none" stroke-width="1" fill="none" fill-rule="evenodd">
        <g id="Troy-Logo" transform="translate(11.000000, 10.000000)">
            <g id="Group" transform="translate(1.583578, 25.249267)" fill="#323E48">
                <path d="M0.925513196,0.772434018 L0.388856305,0.772434018 C0.347507331,0.772434018 0.318475073,0.794428152 0.306158358,0.843695015 L0.273607038,0.984457478 L0.0782991202,0.984457478 L0.130205279,0.759237537 C0.157478006,0.627272727 0.209384164,0.58856305 0.343108504,0.58856305 L1.8026393,0.58856305 C1.93372434,0.58856305 1.96891496,0.627272727 1.93900293,0.759237537 L1.88797654,0.984457478 L1.68739003,0.984457478 L1.72170088,0.843695015 C1.73225806,0.795307918 1.71466276,0.772434018 1.66891496,0.772434018 L1.13841642,0.772434018 L0.702932551,2.74046921 L0.487390029,2.74046921 L0.925513196,0.772434018 Z" id="Path"></path>
                <path d="M1.93812317,1.44281525 C1.95131965,1.40058651 1.92756598,1.37595308 1.88709677,1.37595308 L1.75601173,1.37595308 L1.79912023,1.19912023 L2.01642229,1.19912023 C2.14750733,1.19912023 2.18973607,1.25366569 2.16510264,1.37595308 L2.00058651,2.12639296 C1.94252199,2.36656891 1.93900293,2.58211144 2.23548387,2.58211144 C2.58211144,2.58211144 2.87067449,2.27331378 2.94457478,1.93636364 L3.10821114,1.2 L3.31583578,1.2 L3.02727273,2.49237537 C3.02111437,2.53548387 3.03870968,2.55923754 3.08093842,2.55923754 L3.21026393,2.55923754 L3.17067449,2.74046921 L2.95953079,2.74046921 C2.83108504,2.74046921 2.78621701,2.68328446 2.80997067,2.56979472 L2.82580645,2.49853372 C2.83900293,2.43519062 2.85307918,2.38680352 2.85307918,2.38680352 L2.84780059,2.38680352 C2.75278592,2.53548387 2.50029326,2.77741935 2.16422287,2.77741935 C1.79824047,2.77741935 1.68651026,2.58211144 1.77624633,2.18181818 L1.93812317,1.44281525 Z M2.45542522,0.587683284 L2.63577713,0.587683284 L2.57683284,0.849853372 L2.39648094,0.849853372 L2.45542522,0.587683284 Z M2.91554252,0.587683284 L3.09853372,0.587683284 L3.03607038,0.849853372 L2.85571848,0.849853372 L2.91554252,0.587683284 Z" id="Shape" fill-rule="nonzero"></path>
                <path d="M3.77771261,1.44281525 C3.79090909,1.40058651 3.77155425,1.37595308 3.72580645,1.37595308 L3.6,1.37595308 L3.63870968,1.19912023 L3.85337243,1.19912023 C3.98181818,1.19912023 4.02932551,1.25190616 4.00205279,1.36979472 L3.98005865,1.47800587 C3.96510264,1.5431085 3.9483871,1.59589443 3.9483871,1.59589443 L3.95190616,1.59589443 C4.07859238,1.3627566 4.2888563,1.18328446 4.52991202,1.18328446 C4.57302053,1.18328446 4.61348974,1.19384164 4.61348974,1.19384164 L4.56686217,1.39706745 C4.56686217,1.39706745 4.52991202,1.39266862 4.49120235,1.39266862 C4.27478006,1.39266862 4.07243402,1.56334311 3.95454545,1.78680352 C3.90175953,1.88797654 3.86832845,1.99178886 3.84545455,2.08944282 L3.70293255,2.74046921 L3.49354839,2.74046921 L3.77771261,1.44281525 Z" id="Path"></path>
                <path d="M4.96715543,0.834017595 C4.97595308,0.78914956 4.95923754,0.764516129 4.9143695,0.764516129 L4.78768328,0.764516129 L4.82463343,0.587683284 L5.04545455,0.587683284 C5.17478006,0.587683284 5.22052786,0.63255132 5.1914956,0.762756598 L4.96363636,1.78504399 L5.12199413,1.78504399 C5.18093842,1.78504399 5.25923754,1.76656891 5.31378299,1.71202346 L5.82404692,1.2 L6.07917889,1.2 L5.50909091,1.76304985 C5.41055718,1.85806452 5.37008798,1.87478006 5.37008798,1.87478006 L5.37008798,1.87653959 C5.37008798,1.87653959 5.40879765,1.90029326 5.43870968,1.99178886 L5.60322581,2.49237537 C5.62258065,2.54076246 5.64721408,2.55923754 5.72991202,2.55923754 L5.81524927,2.55923754 L5.77478006,2.74046921 L5.628739,2.74046921 C5.47653959,2.74046921 5.44046921,2.71407625 5.39824047,2.58826979 L5.2143695,2.03489736 C5.1941349,1.97331378 5.11847507,1.96803519 5.06480938,1.96803519 L4.92492669,1.96803519 L4.75337243,2.74046921 L4.5457478,2.74046921 L4.96715543,0.834017595 Z" id="Path"></path>
                <path d="M6.51136913,1.44281525 C6.52648782,1.40058651 6.494876,1.37595308 6.43165237,1.37595308 L6.22823721,1.37595308 L6.29283527,1.19912023 L6.62956983,1.19912023 C6.83710827,1.19912023 6.90445518,1.25366569 6.8590991,1.38651026 L6.47838288,2.49237537 C6.45776648,2.53548387 6.49212715,2.55923754 6.55535078,2.55923754 L6.76014037,2.55923754 L6.69691674,2.74046921 L6.35743333,2.74046921 C6.15126931,2.74046921 6.08117355,2.68328446 6.12927849,2.55307918 L6.51136913,1.44281525 Z M6.79999875,0.587683284 L7.11474247,0.587683284 L7.02128145,0.849853372 L6.71066101,0.849853372 L6.79999875,0.587683284 Z" id="Shape" fill-rule="nonzero"></path>
                <path d="M6.78914956,3.19794721 C6.92375367,3.19794721 7.04164223,3.08357771 7.12961877,2.94369501 L7.27038123,2.73255132 L7.01085044,1.44985337 C6.99941349,1.39530792 6.97653959,1.37683284 6.91847507,1.37683284 L6.89120235,1.37683284 L6.93167155,1.2 L7.02580645,1.2 C7.16217009,1.2 7.1973607,1.22991202 7.22463343,1.36451613 L7.40410557,2.32785924 C7.41994135,2.40527859 7.42346041,2.49677419 7.42346041,2.49677419 L7.428739,2.49677419 C7.428739,2.49677419 7.47096774,2.40527859 7.51759531,2.32785924 L8.11231672,1.36451613 C8.19501466,1.22991202 8.24780059,1.2 8.38768328,1.2 L8.48357771,1.2 L8.44486804,1.37683284 L8.41143695,1.37683284 C8.35865103,1.37683284 8.32434018,1.39530792 8.28739003,1.44985337 L7.2659824,3.06158358 C7.14369501,3.25865103 6.95718475,3.38269795 6.75483871,3.38269795 C6.53841642,3.38269795 6.45131965,3.23489736 6.45131965,3.23489736 L6.58680352,3.08005865 C6.58592375,3.08181818 6.65894428,3.19794721 6.78914956,3.19794721" id="Path"></path>
                <path d="M9.37829912,1.16041056 C9.80498534,1.16041056 9.94926686,1.48944282 9.86832845,1.87390029 C9.85953079,1.90821114 9.83841642,1.97771261 9.83841642,1.97771261 L8.65249267,1.97771261 C8.57419355,2.36568915 8.79853372,2.59002933 9.11788856,2.59002933 C9.39941349,2.59002933 9.6228739,2.39912023 9.6228739,2.39912023 L9.68709677,2.55395894 C9.68709677,2.55395894 9.41788856,2.77741935 9.06334311,2.77741935 C8.60762463,2.77741935 8.33225806,2.44398827 8.43782991,1.97067449 C8.55131965,1.46129032 8.96217009,1.16041056 9.37829912,1.16041056 Z M9.66686217,1.81319648 C9.72228739,1.49472141 9.56304985,1.3372434 9.33431085,1.3372434 C9.08181818,1.3372434 8.82228739,1.50175953 8.7026393,1.81319648 L9.66686217,1.81319648 Z" id="Shape" fill-rule="nonzero"></path>
                <polygon id="Path" points="10.4859238 0.555131965 10.7032258 0.555131965 10.4146628 1.08123167 10.2501466 1.08123167"></polygon>
                <path d="M10.942522,1.44281525 C10.9548387,1.40058651 10.9328446,1.37595308 10.8932551,1.37595308 L10.7630499,1.37595308 L10.8026393,1.19912023 L11.0181818,1.19912023 C11.1466276,1.19912023 11.1941349,1.25454545 11.1659824,1.36803519 L11.1519062,1.43929619 C11.1360704,1.50175953 11.1219941,1.55102639 11.1219941,1.55102639 L11.1290323,1.55102639 C11.2143695,1.40674487 11.4642229,1.16041056 11.8240469,1.16041056 C12.2102639,1.16041056 12.2964809,1.37595308 12.2129032,1.76041056 L12.0501466,2.49237537 C12.0378299,2.53548387 12.0589443,2.55923754 12.1038123,2.55923754 L12.2313783,2.55923754 L12.1926686,2.74046921 L11.9718475,2.74046921 C11.8434018,2.74046921 11.7994135,2.68328446 11.8266862,2.55307918 L11.9912023,1.81495601 C12.0457478,1.56950147 12.0554252,1.35923754 11.7580645,1.35923754 C11.4932551,1.35923754 11.2249267,1.53782991 11.1,1.78856305 C11.0674487,1.85718475 11.0454545,1.92844575 11.0296188,1.99970674 L10.8668622,2.73958944 L10.657478,2.73958944 L10.942522,1.44281525 Z" id="Path"></path>
                <path d="M12.9512667,1.44281525 C12.9650166,1.40058651 12.9402668,1.37595308 12.8673924,1.37595308 L12.6666441,1.37595308 L12.7298936,1.19912023 L13.0695157,1.19912023 C13.275764,1.19912023 13.3390135,1.25366569 13.2963889,1.38651026 L12.912767,2.49237537 C12.9017671,2.53548387 12.9265169,2.55923754 12.9966414,2.55923754 L13.1987647,2.55923754 L13.1368902,2.74046921 L12.795893,2.74046921 C12.5882697,2.74046921 12.5208953,2.68328446 12.5703949,2.55307918 L12.9512667,1.44281525 Z M13.2427643,0.587683284 L13.5548867,0.587683284 L13.4655125,0.849853372 L13.1465151,0.849853372 L13.2427643,0.587683284 Z" id="Shape" fill-rule="nonzero"></path>
                <path d="M13.5475073,1.44281525 C13.556305,1.40058651 13.5387097,1.37595308 13.4912023,1.37595308 L13.3662757,1.37595308 L13.4032258,1.19912023 L13.6222874,1.19912023 C13.7489736,1.19912023 13.7947214,1.25454545 13.7692082,1.36803519 L13.7533724,1.43929619 C13.740176,1.50175953 13.7234604,1.55102639 13.7234604,1.55102639 L13.7304985,1.55102639 C13.8167155,1.40674487 14.070088,1.16041056 14.429912,1.16041056 C14.8117302,1.16041056 14.898827,1.37595308 14.8152493,1.76041056 L14.6524927,2.49237537 C14.643695,2.53548387 14.6612903,2.55923754 14.7043988,2.55923754 L14.8354839,2.55923754 L14.7932551,2.74046921 L14.5750733,2.74046921 C14.4431085,2.74046921 14.4026393,2.68328446 14.4307918,2.55307918 L14.5935484,1.81495601 C14.6472141,1.56950147 14.658651,1.35923754 14.3604106,1.35923754 C14.0964809,1.35923754 13.829912,1.53782991 13.7032258,1.78856305 C13.6715543,1.85718475 13.6495601,1.92844575 13.6337243,1.99970674 L13.4683284,2.73958944 L13.2607038,2.73958944 L13.5475073,1.44281525 Z" id="Path"></path>
                <path d="M17.3595308,0.546334311 C17.9718475,0.546334311 18.3519062,1.03020528 18.2155425,1.64780059 C18.0739003,2.28035191 17.4756598,2.77653959 16.8677419,2.77653959 C16.2545455,2.77653959 15.8815249,2.28035191 16.0222874,1.64780059 C16.158651,1.03020528 16.7498534,0.546334311 17.3595308,0.546334311 Z M16.9143695,2.57331378 C17.3938416,2.57331378 17.8768328,2.1686217 17.9920821,1.64780059 C18.1038123,1.14017595 17.797654,0.746920821 17.3146628,0.746920821 C16.8307918,0.746920821 16.3548387,1.13929619 16.2431085,1.64780059 C16.128739,2.1686217 16.4278592,2.57331378 16.9143695,2.57331378 Z M17.1395894,0.0695014663 L17.3199413,0.0695014663 L17.2609971,0.333431085 L17.0815249,0.333431085 L17.1395894,0.0695014663 Z M17.5997067,0.0695014663 L17.7800587,0.0695014663 L17.7219941,0.333431085 L17.5434018,0.333431085 L17.5997067,0.0695014663 Z" id="Shape" fill-rule="nonzero"></path>
                <path d="M19.2589443,1.16041056 C19.6319648,1.16041056 19.6979472,1.44897361 19.6979472,1.44897361 L19.7041056,1.44897361 C19.7041056,1.44897361 19.7102639,1.39618768 19.7225806,1.33284457 L19.8325513,0.83313783 C19.8439883,0.788269795 19.8237537,0.763636364 19.7806452,0.763636364 L19.6513196,0.763636364 L19.6926686,0.586803519 L19.9073314,0.586803519 C20.0419355,0.586803519 20.085044,0.637829912 20.0542522,0.772434018 L19.6768328,2.49237537 C19.6636364,2.53460411 19.683871,2.55923754 19.728739,2.55923754 L19.856305,2.55923754 L19.8175953,2.74046921 L19.6029326,2.74046921 C19.4744868,2.74046921 19.4313783,2.68152493 19.4568915,2.56979472 C19.470088,2.51085044 19.4841642,2.47214076 19.4841642,2.47214076 L19.4788856,2.47214076 C19.4788856,2.47214076 19.2826979,2.77741935 18.8797654,2.77741935 C18.4662757,2.77741935 18.2788856,2.44398827 18.3888563,1.96803519 C18.4961877,1.4797654 18.8524927,1.16041056 19.2589443,1.16041056 M19.5879765,1.96803519 C19.657478,1.65483871 19.5677419,1.34868035 19.2334311,1.34868035 C18.9642229,1.34868035 18.6879765,1.58005865 18.6017595,1.96803519 C18.5181818,2.34633431 18.6615836,2.59002933 18.9510264,2.59002933 C19.2096774,2.59002933 19.4929619,2.40439883 19.5879765,1.96803519" id="Shape" fill-rule="nonzero"></path>
                <path d="M21.1064516,1.16041056 C21.5331378,1.16041056 21.6826979,1.48944282 21.5973607,1.87390029 C21.5876833,1.90821114 21.5665689,1.97771261 21.5665689,1.97771261 L20.3824047,1.97771261 C20.3041056,2.36568915 20.527566,2.59002933 20.8451613,2.59002933 C21.1302053,2.59002933 21.3492669,2.39912023 21.3492669,2.39912023 L21.4178886,2.55395894 C21.4178886,2.55395894 21.1442815,2.77741935 20.7932551,2.77741935 C20.3384164,2.77741935 20.0595308,2.44398827 20.1659824,1.97067449 C20.2785924,1.46129032 20.6947214,1.16041056 21.1064516,1.16041056 Z M21.3958944,1.81319648 C21.4548387,1.49472141 21.2920821,1.3372434 21.0668622,1.3372434 C20.8143695,1.3372434 20.5513196,1.50175953 20.4316716,1.81319648 L21.3958944,1.81319648 Z" id="Shape" fill-rule="nonzero"></path>
                <path d="M22.0935484,1.44281525 C22.1032258,1.40058651 22.0865103,1.37595308 22.0398827,1.37595308 L21.9140762,1.37595308 L21.9519062,1.19912023 L22.1648094,1.19912023 C22.2967742,1.19912023 22.3407625,1.25454545 22.3170088,1.36803519 L22.2985337,1.43929619 C22.2879765,1.50175953 22.2677419,1.55102639 22.2677419,1.55102639 L22.2739003,1.55102639 C22.3970674,1.34164223 22.6785924,1.16041056 22.9214076,1.16041056 C23.2055718,1.16041056 23.3217009,1.29237537 23.3111437,1.54662757 L23.3190616,1.54662757 C23.4483871,1.34076246 23.7105572,1.16041056 23.9709677,1.16041056 C24.3466276,1.16041056 24.4337243,1.37595308 24.3510264,1.76041056 L24.1909091,2.49237537 C24.1785924,2.53548387 24.1979472,2.55923754 24.2428152,2.55923754 L24.371261,2.55923754 L24.3325513,2.74046921 L24.11261,2.74046921 C23.9797654,2.74046921 23.9366569,2.68328446 23.9665689,2.55307918 L24.1328446,1.81319648 C24.1909091,1.56158358 24.1829912,1.35043988 23.8997067,1.35043988 C23.6648094,1.35043988 23.4281525,1.56158358 23.3164223,1.78504399 C23.2768328,1.85630499 23.257478,1.92932551 23.2398827,2.00938416 L23.0771261,2.74134897 L22.8686217,2.74134897 L23.073607,1.81407625 C23.1237537,1.58005865 23.1422287,1.35131965 22.8501466,1.35131965 C22.601173,1.35131965 22.3653959,1.571261 22.2501466,1.80615836 C22.2158358,1.871261 22.1929619,1.94252199 22.1780059,2.00938416 L22.0170088,2.74134897 L21.8076246,2.74134897 L22.0935484,1.44281525 Z" id="Path"></path>
                <path d="M25.6134897,1.16041056 C26.0384164,1.16041056 26.186217,1.48944282 26.1008798,1.87390029 C26.0920821,1.90821114 26.073607,1.97771261 26.073607,1.97771261 L24.8868035,1.97771261 C24.8085044,2.36568915 25.0319648,2.59002933 25.3504399,2.59002933 C25.6354839,2.59002933 25.8554252,2.39912023 25.8554252,2.39912023 L25.9222874,2.55395894 C25.9222874,2.55395894 25.6513196,2.77741935 25.301173,2.77741935 C24.8428152,2.77741935 24.5656891,2.44398827 24.6730205,1.97067449 C24.783871,1.46129032 25.1982405,1.16041056 25.6134897,1.16041056 Z M25.9002933,1.81319648 C25.9601173,1.49472141 25.7991202,1.3372434 25.571261,1.3372434 C25.3152493,1.3372434 25.0557185,1.50175953 24.9343109,1.81319648 L25.9002933,1.81319648 Z" id="Shape" fill-rule="nonzero"></path>
                <path d="M27.7653959,1.8026393 L27.3994135,0.853372434 C27.3721408,0.788269795 27.3378299,0.771554252 27.2727273,0.771554252 L27.2208211,0.771554252 L27.2648094,0.585923754 L27.3475073,0.585923754 C27.4944282,0.585923754 27.543695,0.604398827 27.6026393,0.75483871 L27.8357771,1.3627566 C27.873607,1.47800587 27.9123167,1.60645161 27.9123167,1.60645161 L27.9175953,1.60645161 C27.9175953,1.60645161 28.0099707,1.47800587 28.1014663,1.3627566 L28.6029326,0.75483871 C28.7269795,0.604398827 28.7876833,0.585923754 28.9354839,0.585923754 L29.0181818,0.585923754 L28.9733138,0.771554252 L28.9249267,0.771554252 C28.8642229,0.771554252 28.8175953,0.787390029 28.7665689,0.853372434 L27.9765396,1.8026393 L27.7680352,2.73958944 L27.5560117,2.73958944 L27.7653959,1.8026393 Z" id="Path"></path>
                <path d="M29.6269795,1.16041056 C30.0765396,1.16041056 30.3651026,1.50615836 30.2648094,1.95923754 C30.1645161,2.4228739 29.7202346,2.77653959 29.272434,2.77653959 C28.8219941,2.77653959 28.5343109,2.4228739 28.6372434,1.95923754 C28.7375367,1.50615836 29.1800587,1.16041056 29.6269795,1.16041056 Z M29.3120235,2.59002933 C29.640176,2.59002933 29.9692082,2.31994135 30.0501466,1.95923754 C30.1284457,1.61173021 29.9164223,1.34956012 29.5865103,1.34956012 C29.2565982,1.34956012 28.931085,1.61173021 28.8536657,1.95923754 C28.773607,2.31994135 28.9829912,2.59002933 29.3120235,2.59002933 Z M29.4395894,0.587683284 L29.6208211,0.587683284 L29.5618768,0.849853372 L29.3806452,0.849853372 L29.4395894,0.587683284 Z M29.8997067,0.587683284 L30.0774194,0.587683284 L30.0237537,0.849853372 L29.8372434,0.849853372 L29.8997067,0.587683284 Z" id="Shape" fill-rule="nonzero"></path>
                <path d="M30.7530792,1.44281525 C30.7627566,1.40058651 30.742522,1.37595308 30.7020528,1.37595308 L30.570088,1.37595308 L30.611437,1.19912023 L30.8278592,1.19912023 C30.9554252,1.19912023 31.0020528,1.25454545 30.9765396,1.36803519 L30.959824,1.43929619 C30.9457478,1.50175953 30.9281525,1.55102639 30.9281525,1.55102639 L30.9360704,1.55102639 C31.0222874,1.40674487 31.2765396,1.16041056 31.6354839,1.16041056 C32.0181818,1.16041056 32.1052786,1.37595308 32.0199413,1.76041056 L31.8554252,2.49237537 C31.8475073,2.53548387 31.8677419,2.55923754 31.9108504,2.55923754 L32.0384164,2.55923754 L31.9979472,2.74046921 L31.7824047,2.74046921 C31.6504399,2.74046921 31.6090909,2.68328446 31.6354839,2.55307918 L31.7982405,1.81495601 C31.8519062,1.56950147 31.8659824,1.35923754 31.5651026,1.35923754 C31.301173,1.35923754 31.0363636,1.53782991 30.9087977,1.78856305 C30.8753666,1.85718475 30.8533724,1.92844575 30.8384164,1.99970674 L30.6739003,2.73958944 L30.4662757,2.73958944 L30.7530792,1.44281525 Z" id="Path"></path>
                <path d="M32.6375367,1.36979472 L32.4343109,1.36979472 L32.4747801,1.19912023 L32.6797654,1.19912023 L32.7730205,0.772434018 L32.9788856,0.772434018 L32.8829912,1.19912023 L33.2718475,1.19912023 L33.2331378,1.36979472 L32.8469208,1.36979472 L32.6718475,2.15630499 C32.5926686,2.52052786 32.8117302,2.5627566 32.9304985,2.5627566 C32.9709677,2.5627566 33,2.55835777 33,2.55835777 L32.958651,2.74486804 C32.958651,2.74486804 32.9199413,2.74926686 32.8671554,2.74926686 C32.6903226,2.74926686 32.3445748,2.69208211 32.4580645,2.18005865 L32.6375367,1.36979472 Z" id="Path"></path>
                <path d="M34.2633431,1.16041056 C34.6900293,1.16041056 34.8404692,1.48944282 34.755132,1.87390029 C34.7445748,1.90821114 34.7225806,1.97771261 34.7225806,1.97771261 L33.5392962,1.97771261 C33.4601173,2.36568915 33.6818182,2.59002933 34.0002933,2.59002933 C34.2835777,2.59002933 34.5061584,2.39912023 34.5061584,2.39912023 L34.571261,2.55395894 C34.571261,2.55395894 34.301173,2.77741935 33.9492669,2.77741935 C33.4935484,2.77741935 33.2181818,2.44398827 33.3228739,1.97067449 C33.4381232,1.46129032 33.8480938,1.16041056 34.2633431,1.16041056 Z M34.5519062,1.81319648 C34.6108504,1.49472141 34.4480938,1.3372434 34.2202346,1.3372434 C33.9686217,1.3372434 33.7082111,1.50175953 33.5868035,1.81319648 L34.5519062,1.81319648 Z" id="Shape" fill-rule="nonzero"></path>
                <path d="M35.2513196,1.44281525 C35.257478,1.40058651 35.2390029,1.37595308 35.1967742,1.37595308 L35.0692082,1.37595308 L35.1079179,1.19912023 L35.3217009,1.19912023 C35.4536657,1.19912023 35.4985337,1.25454545 35.4739003,1.36803519 L35.4554252,1.43929619 C35.4431085,1.50175953 35.4272727,1.55102639 35.4272727,1.55102639 L35.4334311,1.55102639 C35.557478,1.34164223 35.8381232,1.16041056 36.0774194,1.16041056 C36.3642229,1.16041056 36.4821114,1.29237537 36.4715543,1.54662757 L36.4759531,1.54662757 C36.6061584,1.34076246 36.8665689,1.16041056 37.128739,1.16041056 C37.5026393,1.16041056 37.5967742,1.37595308 37.511437,1.76041056 L37.3469208,2.49237537 C37.3372434,2.53548387 37.357478,2.55923754 37.3997067,2.55923754 L37.5281525,2.55923754 L37.4894428,2.74046921 L37.2677419,2.74046921 C37.1392962,2.74046921 37.0953079,2.68328446 37.1278592,2.55307918 L37.2906158,1.81319648 C37.3478006,1.56158358 37.3390029,1.35043988 37.0565982,1.35043988 C36.8234604,1.35043988 36.585044,1.56158358 36.4733138,1.78504399 C36.4346041,1.85630499 36.4152493,1.92932551 36.3967742,2.00938416 L36.2357771,2.74134897 L36.0272727,2.74134897 L36.2322581,1.81407625 C36.2841642,1.58005865 36.3008798,1.35131965 36.0087977,1.35131965 C35.7580645,1.35131965 35.5222874,1.571261 35.4070381,1.80615836 C35.3744868,1.871261 35.3542522,1.94252199 35.3357771,2.00938416 L35.1756598,2.74134897 L34.9680352,2.74134897 L35.2513196,1.44281525 Z" id="Path"></path>
                <path d="M38.2478803,1.44281525 C38.2629427,1.40058651 38.2341873,1.37595308 38.1657219,1.37595308 L37.9630643,1.37595308 L38.0301604,1.19912023 L38.3683794,1.19912023 C38.5710369,1.19912023 38.6408716,1.25366569 38.5860993,1.38651026 L38.2095397,2.49237537 C38.1972159,2.53548387 38.2259714,2.55923754 38.2944368,2.55923754 L38.4902478,2.55923754 L38.4272596,2.74046921 L38.0890406,2.74046921 C37.8836445,2.74046921 37.8165484,2.68328446 37.8631049,2.55307918 L38.2478803,1.44281525 Z M38.5368043,0.587683284 L38.8490064,0.587683284 L38.7600014,0.849853372 L38.4409527,0.849853372 L38.5368043,0.587683284 Z" id="Shape" fill-rule="nonzero"></path>
            </g>
            <g id="Group">
                <g id="Path">
                    <path d="M59.5565982,4.83343109 C58.6495601,4.83343109 57.6501466,5.33577713 57.2542522,6.24457478 L53.0199413,15.9439883 L51.4953079,6.24457478 C51.3175953,5.33577713 50.7017595,4.83343109 49.7260997,4.83343109 L44.3630499,4.83343109 L48.9501466,20.9463343 C49.0328446,21.2560117 49.0504399,21.5982405 48.9888563,21.9589443 C48.7469208,23.3032258 47.4642229,24.3958944 46.1173021,24.3958944 L43.1164223,24.3958944 C42.3536657,24.3958944 41.8513196,24.8674487 41.6041056,25.9363636 L40.9372434,29.928739 L46.2255132,29.928739 C48.9870968,29.928739 52.2272727,28.5431085 54.3879765,24.7099707 L64.9768328,4.83343109 L59.5565982,4.83343109 Z" fill="#323E48"></path>
                    <path d="M7.50087977,0.0246334311 C9.08533724,0.0246334311 9.84985337,0.656304985 9.57184751,2.24252199 L9.11348974,4.82815249 L12.7530792,4.82815249 L11.9524927,9.37214076 L8.31290323,9.37214076 L7.32140762,15 C6.97653959,16.957478 8.91818182,17.2205279 10.031085,17.2205279 C10.2527859,17.2205279 10.4357771,17.2117302 10.5695015,17.2073314 L9.67741935,22.2739003 C9.40469208,22.3020528 9.11876833,22.3407625 8.52052786,22.3407625 C5.75718475,22.3407625 0.53313783,21.6008798 1.56070381,15.772434 L2.68416422,9.37214076 L0.033431085,9.37214076 L0.832258065,4.82815249 L3.45659824,4.82815249 L4.30381232,0.0246334311 L7.50087977,0.0246334311 Z" fill="#323E48"></path>
                    <g transform="translate(26.656891, 4.662757)" fill="#00ADBB">
                        <path d="M11.4175953,0.373900293 L10.4824047,5.67272727 C11.6366569,6.26041056 12.4249267,7.45777126 12.4249267,8.83812317 C12.4249267,10.6592375 11.0621701,12.1504399 9.30351906,12.3642229 L8.37096774,17.6621701 C8.53548387,17.6727273 8.70351906,17.6780059 8.87067449,17.6780059 C13.7542522,17.6780059 17.7105572,13.7190616 17.7105572,8.8372434 C17.7105572,4.84486804 15.059824,1.47096774 11.4175953,0.373900293 Z"></path>
                        <path d="M7.25806452,12.0035191 C6.10645161,11.4184751 5.31554252,10.2184751 5.31554252,8.8372434 C5.31554252,7.02756598 6.68357771,5.52492669 8.43958944,5.31378299 L9.37214076,0.0175953079 C9.20498534,0.00791788856 9.03695015,0 8.86979472,0 C3.9914956,0 0.0325513196,3.96158358 0.0325513196,8.8372434 C0.0325513196,12.8304985 2.68328446,16.2096774 6.3255132,17.3049853 L7.25806452,12.0035191 Z"></path>
                    </g>
                    <path d="M14.8592375,4.83343109 L17.9859238,4.83343109 C19.5703812,4.83343109 20.3322581,5.46686217 20.0516129,7.05307918 L19.7093842,8.97536657 C20.8733138,6.61055718 23.4,4.66099707 25.9944282,4.66099707 C26.3348974,4.66099707 26.6612903,4.72785924 26.6612903,4.72785924 L25.6486804,10.4560117 C25.6486804,10.4560117 25.1956012,10.3504399 24.48739,10.3504399 C23.1070381,10.3504399 20.7730205,10.788563 19.4727273,13.3847507 C19.1612903,14.0234604 18.9237537,14.8020528 18.7592375,15.7390029 L17.6260997,22.1753666 L11.8020528,22.1753666 L14.8592375,4.83343109 Z" fill="#323E48"></path>
                </g>
                <path d="M64.9759531,22.9812317 C64.9759531,23.4985337 64.7929619,23.9392962 64.4269795,24.3052786 C64.0636364,24.6686217 63.6237537,24.8507331 63.1055718,24.8507331 C62.5900293,24.8507331 62.1501466,24.6686217 61.7841642,24.3052786 C61.4181818,23.9392962 61.2351906,23.4985337 61.2351906,22.9812317 C61.2351906,22.4656891 61.4181818,22.0258065 61.7841642,21.659824 C62.1501466,21.2973607 62.5900293,21.1143695 63.1055718,21.1143695 C63.6228739,21.1143695 64.0636364,21.2973607 64.4269795,21.659824 C64.7929619,22.0258065 64.9759531,22.4665689 64.9759531,22.9812317 Z M64.6821114,22.9812317 C64.6821114,22.5404692 64.5272727,22.1656891 64.2184751,21.8560117 C63.9123167,21.543695 63.5384164,21.3870968 63.1055718,21.3870968 C62.6727273,21.3870968 62.302346,21.5445748 61.9953079,21.8560117 C61.6891496,22.1656891 61.5369501,22.5404692 61.5369501,22.9812317 C61.5369501,23.4246334 61.6891496,23.8002933 61.9953079,24.1090909 C62.3014663,24.4205279 62.6727273,24.5780059 63.1055718,24.5780059 C63.5384164,24.5780059 63.911437,24.4205279 64.2184751,24.1090909 C64.5272727,23.801173 64.6821114,23.4246334 64.6821114,22.9812317 Z M63.8912023,24.0043988 L63.558651,24.0043988 L63.0897361,23.1695015 L62.7809384,23.1695015 L62.7809384,24.0043988 L62.497654,24.0043988 L62.497654,21.956305 L63.1935484,21.956305 C63.3739003,21.956305 63.5260997,22.0152493 63.6519062,22.1340176 C63.7759531,22.2527859 63.840176,22.3970674 63.840176,22.5695015 C63.840176,22.8554252 63.6932551,23.043695 63.3994135,23.1334311 L63.8912023,24.0043988 Z M63.5489736,22.5695015 C63.5489736,22.4656891 63.5129032,22.3812317 63.4407625,22.3117302 C63.3686217,22.2422287 63.2762463,22.2079179 63.1627566,22.2079179 L62.7818182,22.2079179 L62.7818182,22.9240469 L63.1627566,22.9240469 C63.2762463,22.9240469 63.3686217,22.8914956 63.4407625,22.8246334 C63.5129032,22.7568915 63.5489736,22.672434 63.5489736,22.5695015 Z" id="Shape" fill="#323E48" fill-rule="nonzero"></path>
            </g>
        </g>
    </g>
</svg>