<?xml version="1.0" encoding="UTF-8"?>
<svg width="87px" height="50px" viewBox="0 0 87 50" version="1.1" xmlns="http://www.w3.org/2000/svg" xmlns:xlink="http://www.w3.org/1999/xlink">
    <!-- Generator: Sketch 52.5 (67469) - http://www.bohemiancoding.com/sketch -->
    <title>visa</title>
    <desc>Created with Sketch.</desc>
    <defs>
        <linearGradient x1="0%" y1="50.0001434%" x2="100%" y2="50.0001434%" id="linearGradient-1">
            <stop stop-color="#1D1C45" offset="0%"></stop>
            <stop stop-color="#174489" offset="100%"></stop>
        </linearGradient>
    </defs>
    <g id="visa" stroke="none" stroke-width="1" fill="none" fill-rule="evenodd">
        <path d="M42.7291493,14.389174 L38.1773273,35.6672783 L32.6721236,35.6672783 L37.2258379,14.389174 L42.7291493,14.389174 Z M65.8878408,28.1278993 L68.7855156,20.1384787 L70.4535394,28.1278993 L65.8878408,28.1278993 Z M72.0301041,35.6672783 L77.1212191,35.6672783 L72.6772557,14.389174 L67.9790992,14.389174 C66.9222741,14.389174 66.0313369,15.0032111 65.6358554,15.9496545 L57.3764729,35.6672783 L63.1551077,35.6672783 L64.3033917,32.4882881 L71.3649761,32.4882881 L72.0301041,35.6672783 Z M57.662519,28.7195447 C57.6871183,23.1042748 49.8973308,22.7942602 49.9509447,20.2851286 C49.967975,19.522234 50.6946013,18.7110869 52.2856733,18.5032541 C53.0731672,18.4004415 55.2483156,18.3206514 57.7123484,19.4550589 L58.6796066,14.9432897 C57.3540813,14.4623412 55.6507354,14 53.5295163,14 C48.0892801,14 44.2593538,16.8926288 44.2287623,21.0332005 C44.1924941,24.0980246 46.9618108,25.8057857 49.0483385,26.8247656 C51.1919493,27.8673987 51.9110066,28.5363112 51.9031222,29.4688781 C51.887038,30.8972161 50.1925227,31.5267066 48.608389,31.5513059 C45.8409645,31.5945125 44.2347544,30.803234 42.9549586,30.206858 L41.9583704,34.8696924 C43.2432122,35.4600763 45.6173629,35.9747699 48.0795034,36 C53.8625534,36 57.6445426,33.1445856 57.662519,28.7195447 Z M34.8636716,14.389174 L25.9451532,35.6672783 L20.1267812,35.6672783 L15.7380085,18.6858568 C15.4715158,17.6403853 15.2403452,17.2565727 14.4301442,16.8169386 C13.1071418,16.0981966 10.9222168,15.4245535 9,15.0060495 L9.12961954,14.389174 L18.4966025,14.389174 C19.68967,14.389174 20.7638407,15.1829754 21.0347487,16.5583302 L23.3527624,28.871556 L29.0818831,14.389174 L34.8636716,14.389174 Z" id="Fill-1" fill="url(#linearGradient-1)"></path>
    </g>
</svg>